{
  "accessors": [
    {
      "bufferView": 2,
      "componentType": 5126,
      "count": 1648,
      "max": [
        0.04006217047572136,
        0.08364078402519226,
        0.025297507643699646
      ],
      "min": [
        -0.04006217047572136,
        -0.07962045818567276,
        -1.1641532182693481e-10
      ],
      "type": "VEC3"
    },
    {
      "bufferView": 2,
      "byteOffset": 19776,
      "componentType": 5126,
      "count": 1648,
      "max": [
        1.0,
        1.0,
        1.0
      ],
      "min": [
        -1.0,
        -1.0,
        -1.0
      ],
      "type": "VEC3"
    },
    {
      "bufferView": 3,
      "componentType": 5126,
      "count": 1648,
      "max": [
        1.0,
        1.0,
        1.0,
        1.0
      ],
      "min": [
        -0.9999983310699463,
        -1.0,
        -1.0,
        -1.0
      ],
      "type": "VEC4"
    },
    {
      "bufferView": 1,
      "componentType": 5126,
      "count": 1648,
      "max": [
        0.9904413819313049,
        0.9892919659614563
      ],
      "min": [
        0.007762307301163673,
        0.014033346436917782
      ],
      "type": "VEC2"
    },
    {
      "bufferView": 1,
      "byteOffset": 13184,
      "componentType": 5126,
      "count": 1648,
      "max": [
        0.9904413819313049,
        0.9892919659614563
      ],
      "min": [
        0.007762307301163673,
        0.014033346436917782
      ],
      "type": "VEC2"
    },
    {
      "bufferView": 0,
      "componentType": 5125,
      "count": 5046,
      "type": "SCALAR"
    },
    {
      "bufferView": 2,
      "byteOffset": 39552,
      "componentType": 5126,
      "count": 4,
      "max": [
        0.030686622485518456,
        0.06752175092697144,
        0.02304903045296669
      ],
      "min": [
        -0.030686622485518456,
        0.03450857847929001,
        0.02304903045296669
      ],
      "type": "VEC3"
    },
    {
      "bufferView": 2,
      "byteOffset": 39600,
      "componentType": 5126,
      "count": 4,
      "max": [
        0.0,
        0.0,
        1.0
      ],
      "min": [
        0.0,
        0.0,
        1.0
      ],
      "type": "VEC3"
    },
    {
      "bufferView": 1,
      "byteOffset": 26368,
      "componentType": 5126,
      "count": 4,
      "max": [
        1.0,
        1.0
      ],
      "min": [
        0.0,
        0.0
      ],
      "type": "VEC2"
    },
    {
      "bufferView": 0,
      "byteOffset": 20184,
      "componentType": 5125,
      "count": 6,
      "type": "SCALAR"
    },
    {
      "bufferView": 2,
      "byteOffset": 39648,
      "componentType": 5126,
      "count": 176,
      "max": [
        0.0200582854449749,
        0.020058277994394302,
        0.006755872629582882
      ],
      "min": [
        -0.0200582854449749,
        -0.020058277994394302,
        -2.561137080192566e-09
      ],
      "type": "VEC3"
    },
    {
      "bufferView": 2,
      "byteOffset": 41760,
      "componentType": 5126,
      "count": 176,
      "max": [
        0.9994524717330933,
        0.6023412346839905,
        1.0
      ],
      "min": [
        -0.9994524717330933,
        -0.6023412346839905,
        -0.009665874764323235
      ],
      "type": "VEC3"
    },
    {
      "bufferView": 3,
      "byteOffset": 26368,
      "componentType": 5126,
      "count": 176,
      "max": [
        0.6426522731781006,
        0.29275575280189514,
        0.9998765587806702,
        1.0
      ],
      "min": [
        -0.9999889731407166,
        -0.7767864465713501,
        -0.9998830556869507,
        1.0
      ],
      "type": "VEC4"
    },
    {
      "bufferView": 1,
      "byteOffset": 26400,
      "componentType": 5126,
      "count": 176,
      "max": [
        0.8543419241905212,
        0.7751620411872864
      ],
      "min": [
        0.007711106911301613,
        0.013763844035565853
      ],
      "type": "VEC2"
    },
    {
      "bufferView": 1,
      "byteOffset": 27808,
      "componentType": 5126,
      "count": 176,
      "max": [
        0.8543419241905212,
        0.7751620411872864
      ],
      "min": [
        0.007711106911301613,
        0.013763844035565853
      ],
      "type": "VEC2"
    },
    {
      "bufferView": 0,
      "byteOffset": 20208,
      "componentType": 5125,
      "count": 582,
      "type": "SCALAR"
    }
  ],
  "asset": {
    "extras": {
      "author": "kuszoid (https://sketchfab.com/kuszoid)",
      "license": "CC-BY-4.0 (http://creativecommons.org/licenses/by/4.0/)",
      "source": "https://sketchfab.com/3d-models/multimeter-43fef61ddc2a4ff2a0fd911488a118bc",
      "title": "multimeter"
    },
    "generator": "Sketchfab-16.75.0",
    "version": "2.0"
  },
  "bufferViews": [
    {
      "buffer": 0,
      "byteLength": 22536,
      "name": "floatBufferViews",
      "target": 34963
    },
    {
      "buffer": 0,
      "byteLength": 29216,
      "byteOffset": 22536,
      "byteStride": 8,
      "name": "floatBufferViews",
      "target": 34962
    },
    {
      "buffer": 0,
      "byteLength": 43872,
      "byteOffset": 51752,
      "byteStride": 12,
      "name": "floatBufferViews",
      "target": 34962
    },
    {
      "buffer": 0,
      "byteLength": 29184,
      "byteOffset": 95624,
      "byteStride": 16,
      "name": "floatBufferViews",
      "target": 34962
    }
  ],
  "buffers": [
    {
      "byteLength": 124808,
      "uri": "scene.bin"
    }
  ],
  "extensionsUsed": [
    "KHR_materials_specular"
  ],
  "images": [
    {
      "uri": "textures/MASTECH_MS8321B_baseColor.png"
    },
    {
      "uri": "textures/MASTECH_MS8321B_metallicRoughness.png"
    },
    {
      "uri": "textures/MASTECH_MS8321B_normal.png"
    }
  ],
  "materials": [
    {
      "doubleSided": true,
      "extensions": {
        "KHR_materials_specular": {
          "specularColorFactor": [
            1.0,
            1.0,
            1.0
          ],
          "specularFactor": 0.540194196317583
        }
      },
      "name": "MASTECH_MS8321B",
      "normalTexture": {
        "index": 2
      },
      "pbrMetallicRoughness": {
        "baseColorTexture": {
          "index": 0
        },
        "metallicRoughnessTexture": {
          "index": 1
        }
      }
    },
    {
      "alphaMode": "BLEND",
      "doubleSided": true,
      "extensions": {
        "KHR_materials_specular": {
          "specularColorFactor": [
            1.0,
            1.0,
            1.0
          ],
          "specularFactor": 1.0
        }
      },
      "name": "glass",
      "pbrMetallicRoughness": {
        "baseColorFactor": [
          0.3914495714555922,
          0.6818883674122793,
          1.0,
          0.048280408763609235
        ],
        "metallicFactor": 0.0,
        "roughnessFactor": 0.0
      }
    }
  ],
  "meshes": [
    {
      "name": "MASTECH_MS8321B_body_MASTECH_MS8321B_0",
      "primitives": [
        {
          "attributes": {
            "NORMAL": 1,
            "POSITION": 0,
            "TANGENT": 2,
            "TEXCOORD_0": 3,
            "TEXCOORD_1": 4
          },
          "indices": 5,
          "material": 0,
          "mode": 4
        }
      ]
    },
    {
      "name": "MASTECH_MS8321B_body_glass_0",
      "primitives": [
        {
          "attributes": {
            "NORMAL": 7,
            "POSITION": 6,
            "TEXCOORD_0": 8
          },
          "indices": 9,
          "material": 1,
          "mode": 4
        }
      ]
    },
    {
      "name": "MASTECH_MS8321B_regulator_MASTECH_MS8321B_0",
      "primitives": [
        {
          "attributes": {
            "NORMAL": 11,
            "POSITION": 10,
            "TANGENT": 12,
            "TEXCOORD_0": 13,
            "TEXCOORD_1": 14
          },
          "indices": 15,
          "material": 0,
          "mode": 4
        }
      ]
    }
  ],
  "nodes": [
    {
      "children": [
        1
      ],
      "matrix": [
        1.0,
        0.0,
        0.0,
        0.0,
        0.0,
        2.220446049250313e-16,
        -1.0,
        0.0,
        0.0,
        1.0,
        2.220446049250313e-16,
        0.0,
        0.0,
        0.0,
        0.0,
        1.0
      ],
      "name": "Sketchfab_model"
    },
    {
      "children": [
        2
      ],
      "matrix": [
        1.0,
        0.0,
        0.0,
        0.0,
        0.0,
        0.0,
        1.0,
        0.0,
        0.0,
        -1.0,
        0.0,
        0.0,
        0.0,
        0.0,
        0.0,
        1.0
      ],
      "name": "62582021da484db1b1d0edbbf467aece.fbx"
    },
    {
      "children": [
        3
      ],
      "name": "RootNode"
    },
    {
      "children": [
        4,
        5,
        6
      ],
      "matrix": [
        1.0,
        0.0,
        0.0,
        0.0,
        0.0,
        -1.6292067939183141e-07,
        -0.9999999999999868,
        0.0,
        0.0,
        0.9999999999999868,
        -1.6292067939183141e-07,
        0.0,
        0.0,
        0.0,
        0.0,
        1.0
      ],
      "name": "MASTECH_MS8321B_body"
    },
    {
      "mesh": 0,
      "name": "MASTECH_MS8321B_body_MASTECH_MS8321B_0"
    },
    {
      "mesh": 1,
      "name": "MASTECH_MS8321B_body_glass_0"
    },
    {
      "children": [
        7
      ],
      "matrix": [
        1.0,
        0.0,
        0.0,
        0.0,
        0.0,
        1.0,
        -2.646977960169688e-23,
        0.0,
        0.0,
        2.646977960169688e-23,
        1.0,
        0.0,
        -2.7724308893084526e-07,
        -0.011248712427914143,
        0.019969642162322998,
        1.0
      ],
      "name": "MASTECH_MS8321B_regulator"
    },
    {
      "mesh": 2,
      "name": "MASTECH_MS8321B_regulator_MASTECH_MS8321B_0"
    }
  ],
  "samplers": [
    {
      "magFilter": 9729,
      "minFilter": 9987,
      "wrapS": 10497,
      "wrapT": 10497
    }
  ],
  "scene": 0,
  "scenes": [
    {
      "name": "Sketchfab_Scene",
      "nodes": [
        0
      ]
    }
  ],
  "textures": [
    {
      "sampler": 0,
      "source": 0
    },
    {
      "sampler": 0,
      "source": 1
    },
    {
      "sampler": 0,
      "source": 2
    }
  ]
}
