{
  "accessors": [
    {
      "bufferView": 2,
      "componentType": 5126,
      "count": 928,
      "max": [
        0.014714567922055721,
        0.011295982636511326,
        0.1545592099428177
      ],
      "min": [
        -0.014714567922055721,
        -0.011295982636511326,
        -0.12394478917121887
      ],
      "type": "VEC3"
    },
    {
      "bufferView": 2,
      "byteOffset": 11136,
      "componentType": 5126,
      "count": 928,
      "max": [
        1.0,
        1.0,
        0.9999613165855408
      ],
      "min": [
        -1.0,
        -1.0,
        -1.0
      ],
      "type": "VEC3"
    },
    {
      "bufferView": 3,
      "componentType": 5126,
      "count": 928,
      "max": [
        0.9999987483024597,
        1.0,
        1.0,
        1.0
      ],
      "min": [
        -0.999998927116394,
        -1.0,
        -0.9996249079704285,
        1.0
      ],
      "type": "VEC4"
    },
    {
      "bufferView": 1,
      "componentType": 5126,
      "count": 928,
      "max": [
        0.9912999868392944,
        0.9909722805023193
      ],
      "min": [
        0.007992908358573914,
        0.00799187459051609
      ],
      "type": "VEC2"
    },
    {
      "bufferView": 1,
      "byteOffset": 7424,
      "componentType": 5126,
      "count": 928,
      "max": [
        0.9912999868392944,
        0.9909722805023193
      ],
      "min": [
        0.007992908358573914,
        0.00799187459051609
      ],
      "type": "VEC2"
    },
    {
      "bufferView": 0,
      "componentType": 5125,
      "count": 4002,
      "type": "SCALAR"
    },
    {
      "bufferView": 2,
      "byteOffset": 22272,
      "componentType": 5126,
      "count": 1580,
      "max": [
        0.052486859261989594,
        0.011841516941785812,
        0.022465750575065613
      ],
      "min": [
        -0.05932466313242912,
        -0.011556651443243027,
        -0.024689003825187683
      ],
      "type": "VEC3"
    },
    {
      "bufferView": 2,
      "byteOffset": 41232,
      "componentType": 5126,
      "count": 1580,
      "max": [
        1.0,
        1.0,
        1.0
      ],
      "min": [
        -1.0,
        -1.0,
        -1.0
      ],
      "type": "VEC3"
    },
    {
      "bufferView": 3,
      "byteOffset": 14848,
      "componentType": 5126,
      "count": 1580,
      "max": [
        1.0,
        1.0,
        1.0,
        1.0
      ],
      "min": [
        -0.9999986290931702,
        -1.0,
        -0.9999942183494568,
        1.0
      ],
      "type": "VEC4"
    },
    {
      "bufferView": 1,
      "byteOffset": 14848,
      "componentType": 5126,
      "count": 1580,
      "max": [
        0.9874131679534912,
        0.9919369220733643
      ],
      "min": [
        0.007989822886884212,
        0.00798922497779131
      ],
      "type": "VEC2"
    },
    {
      "bufferView": 1,
      "byteOffset": 27488,
      "componentType": 5126,
      "count": 1580,
      "max": [
        0.9874131679534912,
        0.9919369220733643
      ],
      "min": [
        0.007989822886884212,
        0.00798922497779131
      ],
      "type": "VEC2"
    },
    {
      "bufferView": 0,
      "byteOffset": 16008,
      "componentType": 5125,
      "count": 6849,
      "type": "SCALAR"
    }
  ],
  "asset": {
    "extras": {
      "author": "Prince Obrymec (https://sketchfab.com/prince-obrymec)",
      "license": "SKETCHFAB Standard (https://sketchfab.com/licenses)",
      "source": "https://sketchfab.com/3d-models/wooden-hammer-85bcd3668a95475aaf43bd3131a0b160",
      "title": "Wooden Hammer"
    },
    "generator": "Sketchfab-16.95.0",
    "version": "2.0"
  },
  "bufferViews": [
    {
      "buffer": 0,
      "byteLength": 43404,
      "name": "floatBufferViews",
      "target": 34963
    },
    {
      "buffer": 0,
      "byteLength": 40128,
      "byteOffset": 43404,
      "byteStride": 8,
      "name": "floatBufferViews",
      "target": 34962
    },
    {
      "buffer": 0,
      "byteLength": 60192,
      "byteOffset": 83532,
      "byteStride": 12,
      "name": "floatBufferViews",
      "target": 34962
    },
    {
      "buffer": 0,
      "byteLength": 40128,
      "byteOffset": 143724,
      "byteStride": 16,
      "name": "floatBufferViews",
      "target": 34962
    }
  ],
  "buffers": [
    {
      "byteLength": 183852,
      "uri": "scene.bin"
    }
  ],
  "images": [
    {
      "uri": "textures/wooden_hammer_baseColor.jpeg"
    },
    {
      "uri": "textures/wooden_hammer_metallicRoughness.png"
    },
    {
      "uri": "textures/wooden_hammer_normal.png"
    }
  ],
  "materials": [
    {
      "doubleSided": true,
      "name": "wooden_hammer",
      "normalTexture": {
        "index": 2
      },
      "occlusionTexture": {
        "index": 1
      },
      "pbrMetallicRoughness": {
        "baseColorTexture": {
          "index": 0
        },
        "metallicRoughnessTexture": {
          "index": 1
        }
      }
    }
  ],
  "meshes": [
    {
      "name": "body_wooden_hammer_0",
      "primitives": [
        {
          "attributes": {
            "NORMAL": 1,
            "POSITION": 0,
            "TANGENT": 2,
            "TEXCOORD_0": 3,
            "TEXCOORD_1": 4
          },
          "indices": 5,
          "material": 0,
          "mode": 4
        }
      ]
    },
    {
      "name": "head_wooden_hammer_0",
      "primitives": [
        {
          "attributes": {
            "NORMAL": 7,
            "POSITION": 6,
            "TANGENT": 8,
            "TEXCOORD_0": 9,
            "TEXCOORD_1": 10
          },
          "indices": 11,
          "material": 0,
          "mode": 4
        }
      ]
    }
  ],
  "nodes": [
    {
      "children": [
        1
      ],
      "matrix": [
        1.0,
        0.0,
        0.0,
        0.0,
        0.0,
        2.220446049250313e-16,
        -1.0,
        0.0,
        0.0,
        1.0,
        2.220446049250313e-16,
        0.0,
        0.0,
        0.0,
        0.0,
        1.0
      ],
      "name": "Sketchfab_model"
    },
    {
      "children": [
        2
      ],
      "matrix": [
        0.009999999776482582,
        0.0,
        0.0,
        0.0,
        0.0,
        0.0,
        0.009999999776482582,
        0.0,
        0.0,
        -0.009999999776482582,
        0.0,
        0.0,
        0.0,
        0.0,
        0.0,
        1.0
      ],
      "name": "91e326ca4a5d4d88ad6f27fd573f82b9.fbx"
    },
    {
      "children": [
        3,
        5
      ],
      "name": "RootNode"
    },
    {
      "children": [
        4
      ],
      "matrix": [
        100.0,
        0.0,
        0.0,
        0.0,
        0.0,
        -4.371139006309477e-06,
        -99.9999999999999,
        0.0,
        0.0,
        99.9999999999999,
        -4.371139006309477e-06,
        0.0,
        0.0,
        12.396328926086426,
        0.0,
        1.0
      ],
      "name": "body"
    },
    {
      "mesh": 0,
      "name": "body_wooden_hammer_0"
    },
    {
      "children": [
        6
      ],
      "matrix": [
        100.0,
        0.0,
        0.0,
        0.0,
        0.0,
        -4.371139006309477e-06,
        -99.9999999999999,
        0.0,
        0.0,
        99.9999999999999,
        -4.371139006309477e-06,
        0.0,
        0.5279459953308105,
        25.670316696166992,
        0.014242663979530334,
        1.0
      ],
      "name": "head"
    },
    {
      "mesh": 1,
      "name": "head_wooden_hammer_0"
    }
  ],
  "samplers": [
    {
      "magFilter": 9729,
      "minFilter": 9987,
      "wrapS": 10497,
      "wrapT": 10497
    }
  ],
  "scene": 0,
  "scenes": [
    {
      "name": "Sketchfab_Scene",
      "nodes": [
        0
      ]
    }
  ],
  "textures": [
    {
      "sampler": 0,
      "source": 0
    },
    {
      "sampler": 0,
      "source": 1
    },
    {
      "sampler": 0,
      "source": 2
    }
  ]
}
