{
  "accessors": [
    {
      "bufferView": 2,
      "componentType": 5126,
      "count": 2625,
      "max": [
        50.19728088378906,
        137.19578552246094,
        129.05743408203125
      ],
      "min": [
        -35.26799392700195,
        -123.33477783203125,
        -128.94509887695313
      ],
      "type": "VEC3"
    },
    {
      "bufferView": 2,
      "byteOffset": 31500,
      "componentType": 5126,
      "count": 2625,
      "max": [
        0.9999767541885376,
        0.9996874928474426,
        0.9999720454216003
      ],
      "min": [
        -0.9998040795326233,
        -0.9998301267623901,
        -0.9999880194664001
      ],
      "type": "VEC3"
    },
    {
      "bufferView": 3,
      "componentType": 5126,
      "count": 2625,
      "max": [
        0.9999862313270569,
        0.9999406337738037,
        0.8942016959190369,
        1.0
      ],
      "min": [
        -0.9999500513076782,
        -0.999687135219574,
        -0.9996742010116577,
        -1.0
      ],
      "type": "VEC4"
    },
    {
      "bufferView": 1,
      "componentType": 5126,
      "count": 2625,
      "max": [
        0.9899396300315857,
        0.990130603313446
      ],
      "min": [
        0.0035718660801649094,
        0.008427843451499939
      ],
      "type": "VEC2"
    },
    {
      "bufferView": 1,
      "byteOffset": 21000,
      "componentType": 5126,
      "count": 2625,
      "max": [
        0.9899396300315857,
        0.990130603313446
      ],
      "min": [
        0.0035718660801649094,
        0.008427843451499939
      ],
      "type": "VEC2"
    },
    {
      "bufferView": 0,
      "componentType": 5125,
      "count": 14472,
      "type": "SCALAR"
    }
  ],
  "asset": {
    "extras": {
      "author": "Francesco Coldesina (https://sketchfab.com/topfrank2013)",
      "license": "CC-BY-4.0 (http://creativecommons.org/licenses/by/4.0/)",
      "source": "https://sketchfab.com/3d-models/drill-retopo-8fd5608b449f4cde81a8d924cdaed416",
      "title": "Drill Retopo"
    },
    "generator": "Sketchfab-12.65.0",
    "version": "2.0"
  },
  "bufferViews": [
    {
      "buffer": 0,
      "byteLength": 57888,
      "name": "floatBufferViews",
      "target": 34963
    },
    {
      "buffer": 0,
      "byteLength": 42000,
      "byteOffset": 57888,
      "byteStride": 8,
      "name": "floatBufferViews",
      "target": 34962
    },
    {
      "buffer": 0,
      "byteLength": 63000,
      "byteOffset": 99888,
      "byteStride": 12,
      "name": "floatBufferViews",
      "target": 34962
    },
    {
      "buffer": 0,
      "byteLength": 42000,
      "byteOffset": 162888,
      "byteStride": 16,
      "name": "floatBufferViews",
      "target": 34962
    }
  ],
  "buffers": [
    {
      "byteLength": 204888,
      "uri": "scene.bin"
    }
  ],
  "images": [
    {
      "uri": "textures/14_-_Default_baseColor.jpeg"
    },
    {
      "uri": "textures/14_-_Default_normal.png"
    }
  ],
  "materials": [
    {
      "doubleSided": true,
      "name": "14_-_Default",
      "normalTexture": {
        "index": 1
      },
      "pbrMetallicRoughness": {
        "baseColorTexture": {
          "index": 0
        },
        "metallicFactor": 0.33,
        "roughnessFactor": 0.19
      }
    }
  ],
  "meshes": [
    {
      "name": "LR_B1_14 - Default_0",
      "primitives": [
        {
          "attributes": {
            "NORMAL": 1,
            "POSITION": 0,
            "TANGENT": 2,
            "TEXCOORD_0": 3,
            "TEXCOORD_1": 4
          },
          "indices": 5,
          "material": 0,
          "mode": 4
        }
      ]
    }
  ],
  "nodes": [
    {
      "children": [
        1
      ],
      "matrix": [
        1.0,
        0.0,
        0.0,
        0.0,
        0.0,
        2.220446049250313e-16,
        -1.0,
        0.0,
        0.0,
        1.0,
        2.220446049250313e-16,
        0.0,
        0.0,
        0.0,
        0.0,
        1.0
      ],
      "name": "Sketchfab_model"
    },
    {
      "children": [
        2
      ],
      "matrix": [
        1.0,
        0.0,
        0.0,
        0.0,
        0.0,
        0.0,
        1.0,
        0.0,
        0.0,
        -1.0,
        0.0,
        0.0,
        0.0,
        0.0,
        0.0,
        1.0
      ],
      "name": "Drill Retopo.fbx"
    },
    {
      "children": [
        3
      ],
      "name": "RootNode"
    },
    {
      "children": [
        4
      ],
      "matrix": [
        1.0,
        0.0,
        0.0,
        0.0,
        0.0,
        2.220446049250313e-16,
        -1.0,
        0.0,
        0.0,
        1.0,
        2.220446049250313e-16,
        0.0,
        0.0,
        0.0,
        0.0,
        1.0
      ],
      "name": "LR_B1"
    },
    {
      "mesh": 0,
      "name": "LR_B1_14 - Default_0"
    }
  ],
  "samplers": [
    {
      "magFilter": 9729,
      "minFilter": 9987,
      "wrapS": 10497,
      "wrapT": 10497
    }
  ],
  "scene": 0,
  "scenes": [
    {
      "name": "Sketchfab_Scene",
      "nodes": [
        0
      ]
    }
  ],
  "textures": [
    {
      "sampler": 0,
      "source": 0
    },
    {
      "sampler": 0,
      "source": 1
    }
  ]
}
